<svg width="375" height="73" viewBox="0 0 375 73" fill="none" xmlns="http://www.w3.org/2000/svg">
<path d="M30.45 12.75C30.45 14.9833 29.9333 17.0167 28.9 18.85C27.8667 20.65 26.3333 22.0833 24.3 23.15C22.3 24.2167 19.8667 24.75 17 24.75H12.6V36H1.5V0.6H17C21.3333 0.6 24.65 1.7 26.95 3.9C29.2833 6.1 30.45 9.05 30.45 12.75ZM15.75 16C18.05 16 19.2 14.9167 19.2 12.75C19.2 10.5833 18.05 9.5 15.75 9.5H12.6V16H15.75ZM56.6707 30.65H44.8707L43.1207 36H31.4707L44.4207 0.6H57.2207L70.1207 36H58.4207L56.6707 30.65ZM53.9707 22.3L50.7707 12.45L47.5707 22.3H53.9707ZM106.593 36H95.4926L83.7426 18.2V36H72.6426V0.6H83.7426L95.4926 18.7V0.6H106.593V36ZM122.707 0.6V36H111.607V0.6H122.707ZM126.721 18.25C126.721 14.75 127.421 11.6333 128.821 8.9C130.254 6.16667 132.287 4.05 134.921 2.55C137.554 1.01667 140.654 0.249998 144.221 0.249998C147.287 0.249998 150.021 0.833332 152.421 2C154.854 3.13333 156.821 4.75 158.321 6.85C159.854 8.95 160.871 11.4 161.371 14.2H149.671C149.137 13.0333 148.371 12.1333 147.371 11.5C146.404 10.8333 145.287 10.5 144.021 10.5C142.154 10.5 140.671 11.2 139.571 12.6C138.504 14 137.971 15.8833 137.971 18.25C137.971 20.6167 138.504 22.5 139.571 23.9C140.671 25.3 142.154 26 144.021 26C145.287 26 146.404 25.6833 147.371 25.05C148.371 24.3833 149.137 23.4667 149.671 22.3H161.371C160.871 25.1 159.854 27.55 158.321 29.65C156.821 31.75 154.854 33.3833 152.421 34.55C150.021 35.6833 147.287 36.25 144.221 36.25C140.654 36.25 137.554 35.5 134.921 34C132.287 32.4667 130.254 30.3333 128.821 27.6C127.421 24.8667 126.721 21.75 126.721 18.25ZM194.613 18.1C196.58 18.4667 198.197 19.45 199.463 21.05C200.73 22.65 201.363 24.4833 201.363 26.55C201.363 28.4167 200.897 30.0667 199.963 31.5C199.063 32.9 197.747 34 196.013 34.8C194.28 35.6 192.23 36 189.863 36H174.813V1.1H189.213C191.58 1.1 193.613 1.48333 195.313 2.25C197.047 3.01667 198.347 4.08333 199.213 5.45C200.113 6.81666 200.563 8.36666 200.563 10.1C200.563 12.1333 200.013 13.8333 198.913 15.2C197.847 16.5667 196.413 17.5333 194.613 18.1ZM181.813 15.5H188.213C189.88 15.5 191.163 15.1333 192.063 14.4C192.963 13.6333 193.413 12.55 193.413 11.15C193.413 9.75 192.963 8.66666 192.063 7.9C191.163 7.13333 189.88 6.75 188.213 6.75H181.813V15.5ZM188.863 30.3C190.563 30.3 191.88 29.9 192.813 29.1C193.78 28.3 194.263 27.1667 194.263 25.7C194.263 24.2 193.763 23.0333 192.763 22.2C191.763 21.3333 190.413 20.9 188.713 20.9H181.813V30.3H188.863ZM213.842 1.1V22.7C213.842 25.0667 214.459 26.8833 215.692 28.15C216.926 29.3833 218.659 30 220.892 30C223.159 30 224.909 29.3833 226.142 28.15C227.376 26.8833 227.992 25.0667 227.992 22.7V1.1H235.042V22.65C235.042 25.6167 234.392 28.1333 233.092 30.2C231.826 32.2333 230.109 33.7667 227.942 34.8C225.809 35.8333 223.426 36.35 220.792 36.35C218.192 36.35 215.826 35.8333 213.692 34.8C211.592 33.7667 209.926 32.2333 208.692 30.2C207.459 28.1333 206.842 25.6167 206.842 22.65V1.1H213.842ZM265.555 1.1V6.75H256.255V36H249.255V6.75H239.955V1.1H265.555ZM294.413 1.1V6.75H285.113V36H278.113V6.75H268.813V1.1H294.413ZM315.72 36.35C312.454 36.35 309.454 35.5833 306.72 34.05C303.987 32.5167 301.82 30.4 300.22 27.7C298.62 24.9667 297.82 21.8833 297.82 18.45C297.82 15.05 298.62 12 300.22 9.3C301.82 6.56666 303.987 4.43333 306.72 2.9C309.454 1.36667 312.454 0.6 315.72 0.6C319.02 0.6 322.02 1.36667 324.72 2.9C327.454 4.43333 329.604 6.56666 331.17 9.3C332.77 12 333.57 15.05 333.57 18.45C333.57 21.8833 332.77 24.9667 331.17 27.7C329.604 30.4 327.454 32.5167 324.72 34.05C321.987 35.5833 318.987 36.35 315.72 36.35ZM315.72 30.1C317.82 30.1 319.67 29.6333 321.27 28.7C322.87 27.7333 324.12 26.3667 325.02 24.6C325.92 22.8333 326.37 20.7833 326.37 18.45C326.37 16.1167 325.92 14.0833 325.02 12.35C324.12 10.5833 322.87 9.23333 321.27 8.3C319.67 7.36667 317.82 6.9 315.72 6.9C313.62 6.9 311.754 7.36667 310.12 8.3C308.52 9.23333 307.27 10.5833 306.37 12.35C305.47 14.0833 305.02 16.1167 305.02 18.45C305.02 20.7833 305.47 22.8333 306.37 24.6C307.27 26.3667 308.52 27.7333 310.12 28.7C311.754 29.6333 313.62 30.1 315.72 30.1ZM368.628 36H361.628L345.778 12.05V36H338.778V1.05H345.778L361.628 25.05V1.05H368.628V36ZM17.39 57.9C17.39 59.18 17.09 60.35 16.49 61.41C15.91 62.45 15.02 63.29 13.82 63.93C12.64 64.55 11.19 64.86 9.47 64.86H6.56V72H0.68V50.85H9.47C11.17 50.85 12.61 51.15 13.79 51.75C14.99 52.35 15.89 53.18 16.49 54.24C17.09 55.3 17.39 56.52 17.39 57.9ZM8.9 60.18C10.56 60.18 11.39 59.42 11.39 57.9C11.39 56.36 10.56 55.59 8.9 55.59H6.56V60.18H8.9ZM70.2123 72L66.0123 64.2H65.3823V72H59.5023V50.85H68.7723C70.4723 50.85 71.9123 51.15 73.0923 51.75C74.2723 52.33 75.1623 53.14 75.7623 54.18C76.3623 55.2 76.6623 56.35 76.6623 57.63C76.6623 59.07 76.2623 60.34 75.4623 61.44C74.6823 62.52 73.5323 63.29 72.0123 63.75L76.7823 72H70.2123ZM65.3823 60.18H68.2923C69.0923 60.18 69.6923 59.99 70.0923 59.61C70.4923 59.23 70.6923 58.68 70.6923 57.96C70.6923 57.28 70.4823 56.75 70.0623 56.37C69.6623 55.97 69.0723 55.77 68.2923 55.77H65.3823V60.18ZM129.226 72.21C127.246 72.21 125.426 71.75 123.766 70.83C122.106 69.89 120.786 68.6 119.806 66.96C118.846 65.3 118.366 63.43 118.366 61.35C118.366 59.27 118.846 57.41 119.806 55.77C120.786 54.11 122.106 52.82 123.766 51.9C125.426 50.98 127.246 50.52 129.226 50.52C131.226 50.52 133.046 50.98 134.686 51.9C136.346 52.82 137.656 54.11 138.616 55.77C139.576 57.41 140.056 59.27 140.056 61.35C140.056 63.43 139.576 65.3 138.616 66.96C137.656 68.6 136.346 69.89 134.686 70.83C133.026 71.75 131.206 72.21 129.226 72.21ZM129.226 66.75C130.726 66.75 131.906 66.26 132.766 65.28C133.646 64.3 134.086 62.99 134.086 61.35C134.086 59.67 133.646 58.35 132.766 57.39C131.906 56.41 130.726 55.92 129.226 55.92C127.706 55.92 126.516 56.41 125.656 57.39C124.796 58.35 124.366 59.67 124.366 61.35C124.366 63.01 124.796 64.33 125.656 65.31C126.516 66.27 127.706 66.75 129.226 66.75ZM196.46 50.85V64.86C196.46 67.24 195.81 69.06 194.51 70.32C193.23 71.58 191.46 72.21 189.2 72.21C186.8 72.21 184.88 71.54 183.44 70.2C182.02 68.86 181.31 66.93 181.31 64.41H187.13C187.15 66.07 187.76 66.9 188.96 66.9C190.04 66.9 190.58 66.22 190.58 64.86V50.85H196.46ZM245.599 55.56V59.01H252.349V63.48H245.599V67.29H253.249V72H239.719V50.85H253.249V55.56H245.599ZM295.185 61.38C295.185 59.3 295.615 57.45 296.475 55.83C297.355 54.19 298.595 52.92 300.195 52.02C301.795 51.1 303.635 50.64 305.715 50.64C308.355 50.64 310.575 51.35 312.375 52.77C314.175 54.17 315.335 56.08 315.855 58.5H309.525C309.145 57.7 308.615 57.09 307.935 56.67C307.275 56.25 306.505 56.04 305.625 56.04C304.265 56.04 303.175 56.53 302.355 57.51C301.555 58.47 301.155 59.76 301.155 61.38C301.155 63.02 301.555 64.33 302.355 65.31C303.175 66.27 304.265 66.75 305.625 66.75C306.505 66.75 307.275 66.54 307.935 66.12C308.615 65.7 309.145 65.09 309.525 64.29H315.855C315.335 66.71 314.175 68.63 312.375 70.05C310.575 71.45 308.355 72.15 305.715 72.15C303.635 72.15 301.795 71.7 300.195 70.8C298.595 69.88 297.355 68.61 296.475 66.99C295.615 65.35 295.185 63.48 295.185 61.38ZM374.319 50.85V55.53H368.679V72H362.799V55.53H357.219V50.85H374.319Z" fill="#828CF6"/>
</svg>
